<?xml version="1.0" encoding="utf-8"?>
<!-- Generator: Adobe Illustrator 16.0.4, SVG Export Plug-In . SVG Version: 6.00 Build 0)  -->
<!DOCTYPE svg PUBLIC "-//W3C//DTD SVG 1.1 Tiny//EN" "http://www.w3.org/Graphics/SVG/1.1/DTD/svg11-tiny.dtd">
<svg version="1.1" baseProfile="tiny" id="Layer_1" xmlns="http://www.w3.org/2000/svg" xmlns:xlink="http://www.w3.org/1999/xlink"
	 x="0px" y="0px" width="595.28px" height="841.89px" viewBox="0 0 595.28 841.89" xml:space="preserve">
<path d="M71.372,510.324L42,583.504v0.002h20.075l3.859-10.58h25.413l3.558,10.58h20.275l-29.075-73.182H71.372z M373.096,510.324
	v44.205c0,5.836,0,13.943-9.296,13.943c-9.198,0-9.491-8.998-9.491-13.943v-44.205h-18.691v44.205
	c0,10.781,1.285,15.922,7.318,22.549c6.03,6.525,15.725,7.812,21.062,7.812c9.098,0,15.723-3.066,20.472-7.912
	c4.647-4.746,7.317-10.186,7.317-22.449v-44.205H373.096z M126.57,546.719c0-10.385,7.023-21.361,19.581-21.361
	c10.086,0,15.625,7.318,17.702,12.756h19.424c-0.684,2.863-1.035,5.789-1.035,8.703c0,3.16,0.404,6.281,1.167,9.297h-19.556
	c-1.186,2.57-5.936,12.359-17.603,12.359C134.087,568.473,126.57,557.795,126.57,546.719 M200.933,546.719
	c0-10.385,7.02-21.361,19.579-21.361c10.088,0,15.626,7.318,17.702,12.756h19.217c-0.747,3.352-1.024,6.641-1.024,9.691
	c0,2.801,0.35,5.59,1.01,8.309h-19.203c-1.186,2.57-5.933,12.359-17.604,12.359C208.451,568.473,200.933,557.795,200.933,546.719
	 M275.096,546.719c0-10.287,7.023-21.361,19.979-21.361c13.448,0,19.876,12.164,19.876,21.656c0,9.396-6.428,21.459-19.679,21.459
	C282.713,568.473,275.096,557.99,275.096,546.719 M259.275,532.182c-0.694,1.703-1.222,3.414-1.64,5.117
	c-2.402-11.477-14.616-28.357-37.025-28.357c-20.05,0-33.43,13.469-37.243,28.83c-2.16-11.479-14.4-28.83-37.117-28.83
	c-23.934,0-38.37,19.184-38.37,37.875c0,19.779,15.625,38.074,38.568,38.074c17.685,0,32.706-11.453,36.973-28.734
	c4.031,15.842,18.129,28.734,37.388,28.734c17.459,0,32.299-11.17,36.784-28.078c4.013,15.225,17.97,28.078,37.283,28.078
	c22.745,0,38.765-17.604,38.765-37.975s-16.119-37.975-38.665-37.975C274.504,508.941,263.132,522.688,259.275,532.182
	 M505.903,519.42v-9.096h-47.268h-0.201h-17.699l0.792,45.789l-0.197,0.197l-28.283-45.986h-16.119v73.182h17.898l-0.495-44.402
	l0.198-0.1l27.889,44.502h16.218V526.74h14.238v56.766h18.688V526.74h11.265c-0.23,1.203-0.388,2.445-0.388,3.76
	c0,13.746,12.758,18.889,17.9,20.965c11.273,4.746,14.339,5.934,14.339,10.777c0,3.363-2.671,7.023-7.123,7.023
	c-2.372,0-7.611-1.484-7.611-9.99h-18.592v2.375c0,9.395,5.239,23.24,26.401,23.24c19.383,0,25.516-11.768,25.516-22.449
	c0-8.504-3.461-14.834-17.108-20.965c-13.152-5.934-15.129-6.824-15.129-11.174c0-3.463,3.162-5.736,6.428-5.736
	c5.733,0,6.328,4.646,6.725,7.119h18.492c-0.198-4.154-0.496-9.098-4.846-14.438c-4.748-5.639-12.562-8.307-19.78-8.307
	C519.617,508.941,510.668,512.639,505.903,519.42 M65.635,443.934h6.823c7.219,0,12.063,3.262,12.063,9.889
	c0,3.561-1.285,10.482-12.262,10.482h-6.624V443.934z M47.736,427.518v73.18h17.899v-23.637h0.198l16.909,23.637h21.36
	l-19.876-24.922c13.845-2.273,18.196-14.637,18.196-23.041c0-7.516-2.967-15.23-8.999-19.977c-4.745-3.658-9.693-5.24-22.548-5.24
	H47.736z M104.399,427.518v73.18h40.642v-16.416h-22.745v-12.559h22.055v-16.416h-22.055v-11.373h22.745v-16.416H104.399z
	 M297.822,443.934h6.825c7.219,0,12.063,3.262,12.063,9.889c0,3.561-1.282,10.482-12.261,10.482h-6.627V443.934z M279.925,427.518
	v73.18h17.897v-23.637h0.199l16.909,23.637h21.36l-19.875-24.922c13.845-2.273,18.194-14.637,18.194-23.041
	c0-7.516-2.965-15.23-8.998-19.977c-4.746-3.658-9.69-5.24-22.545-5.24H279.925z M333.41,427.518v16.416h14.441v56.764h18.688
	v-56.764h14.341v-16.416H333.41z M166.6,443.934h6.923c4.053,0,12.361,0,12.361,8.604c0,8.801-8.108,8.801-11.67,8.801H166.6
	V443.934z M219.208,463.908c0-10.283,7.018-21.359,19.974-21.359c13.452,0,19.878,12.164,19.878,21.658
	c0,9.395-6.426,21.459-19.679,21.459C226.821,485.666,219.208,475.184,219.208,463.908 M203.571,448.955
	c-0.728-6.221-3.509-12.057-8.391-16.098c-3.956-3.264-8.999-5.34-22.549-5.34H148.7v73.18h17.9v-22.943h8.109
	c11.372,0,16.317-2.076,21.36-6.328c1.734-1.477,3.246-3.492,4.462-5.82c0.329,18.572,15.661,36.477,38.454,36.477
	c22.745,0,38.764-17.604,38.764-37.975c0-20.373-16.117-37.973-38.664-37.973C218.906,426.135,207.583,439.48,203.571,448.955
	 M419.347,479.236c0-4.053,3.263-6.625,5.636-8.504l11.671,11.77c-1.484,1.682-3.76,3.955-8.902,3.955
	C423.303,486.457,419.347,483.885,419.347,479.236 M423.898,444.23c0-3.264,2.271-4.846,4.446-4.846
	c2.771,0,4.253,2.078,4.253,4.646c0,3.561-2.373,5.936-4.548,8.111C426.37,450.361,423.898,447.691,423.898,444.23 M407.973,445.02
	c0,5.244,1.78,10.582,6.922,15.824c-5.239,3.559-13.547,9.197-13.547,20.074c0,11.867,10.683,21.264,24.427,21.264
	c11.767,0,19.087-6.529,21.855-8.9l8.604,8.9l11.174-10.977l-9.988-10.287c2.373-3.064,4.153-6.328,5.537-9.691l5.638-13.547
	h-17.306l-5.338,11.967l-8.605-8.705c3.163-2.271,10.085-7.219,10.085-16.811c0-9.889-7.911-17.996-19.186-17.996
	C416.973,426.135,407.973,434.342,407.973,445.02 M78.59,367.456h0.195h0.101l7.516,25.02H71.074L78.59,367.456z M158.59,344.71
	l0.791,45.786l-0.197,0.197L130.9,344.71h-16.12v72.173L86.105,344.71H71.372L42,417.887v0.002h20.075l3.859-10.581h25.413
	l3.558,10.581h19.875h0.4h17.5l-0.494-44.402l0.197-0.099l27.888,44.501h16.219V344.71H158.59z M225.735,344.71l0.791,45.786
	l-0.2,0.197l-28.281-45.983h-16.119v73.179h17.899l-0.495-44.402l0.197-0.099l27.89,44.501h16.217V344.71H225.735z M286.353,344.71
	v44.205c0,5.834,0,13.943-9.296,13.943c-9.198,0-9.494-9-9.494-13.943V344.71h-18.691v44.205c0,10.777,1.285,15.92,7.318,22.547
	c6.032,6.525,15.724,7.812,21.063,7.812c9.1,0,15.724-3.066,20.471-7.912c4.649-4.747,7.317-10.185,7.317-22.447V344.71H286.353z
	 M337.104,367.456h0.196h0.101l7.513,25.02h-15.327L337.104,367.456z M329.884,344.71l-29.37,73.179h20.074l3.855-10.581h25.415
	l3.562,10.581h20.271l-29.073-73.179H329.884z M373.788,344.71v73.179h40.349v-16.416h-21.661V344.71H373.788z M160.19,260.291
	v15.725h11.966v57.456h18.69v-73.181H160.19z M227.897,283.035h0.2v22.944h-14.638L227.897,283.035z M227.403,260.291
	l-32.733,46.677v13.646h32.239v12.857h17.898v-12.857h8.11v-14.635h-8.11v-45.688H227.403z M54.331,270.082
	c-3.958,6.032-4.154,12.063-4.352,16.811h17.802c0.293-4.253,1.086-11.57,8.404-11.57c5.242,0,6.923,4.154,6.923,7.12
	c0,7.416-7.813,16.119-10.086,18.691c-6.923,7.713-13.152,11.768-22.351,17.8v14.538h51.622v-15.725H77.471
	c11.569-10.188,24.327-22.054,24.327-37.579c0-10.383-8.601-21.262-24.92-21.262C71.537,258.906,60.559,260.39,54.331,270.082
	 M122.201,307.559V286.2c0-3.957,1.189-10.878,8.604-10.878c8.602,0,8.602,8.604,8.602,10.878v21.359c0,2.177,0,10.88-8.602,10.88
	C123.586,318.439,122.201,311.913,122.201,307.559 M103.511,286.694v20.372c0,20.668,16.811,27.789,27.591,27.789
	c11.47,0,26.996-7.418,26.996-27.789v-20.372c0-21.656-17.602-27.788-26.996-27.788C120.62,258.906,103.511,265.531,103.511,286.694
	"/>
</svg>
